PathFileType	4	(X/Y/Z)	path1_18_0-549.trc
DataRate	CameraRate	NumFrames	NumMarkers	Units	OrigDataRate	OrigDataStartFrame	OrigNumFrames
30	30	5	22	m	30	0	549
Frame#	Time	Hip			RHip			RKnee			RAnkle			RBigToe			RSmallToe			RHeel			LHip			LKnee			LAnkle			LBigToe			LSmallToe			LHeel			Neck			Head			Nose			RShoulder			RElbow			RWrist			LShoulder			LElbow			LWrist		
		X1	Y1	Z1	X2	Y2	Z2	X3	Y3	Z3	X4	Y4	Z4	X5	Y5	Z5	X6	Y6	Z6	X7	Y7	Z7	X8	Y8	Z8	X9	Y9	Z9	X10	Y10	Z10	X11	Y11	Z11	X12	Y12	Z12	X13	Y13	Z13	X14	Y14	Z14	X15	Y15	Z15	X16	Y16	Z16	X17	Y17	Z17	X18	Y18	Z18	X19	Y19	Z19	X20	Y20	Z20	X21	Y21	Z21	X22	Y22	Z22
1	0.0333333333333333	2.5086421589432817	0.8244373992711256	0.6082865032905832	2.5080403543444802	0.7938080929980451	0.5256754411108502	2.4776848889565666	0.45938400075916425	0.527440669931856	2.5534918917057357	0.09510687458850063	0.5663180554330092	2.3684257314778887	0.014940553071541251	0.5389421068785559	2.4103120585649234	0.02035160419695116	0.47874787845070854	2.6019082584492708	0.03765233885303391	0.565932166816887	2.500147586212618	0.7851250320362501	0.6933772429860661	2.5057215196334353	0.43395399686127034	0.6728730662290024	2.5629707533454122	0.08787167163597946	0.6607520420786425	2.379582535118623	0.015198653040075553	0.6787644794025555	2.4171116283727065	0.020401799175088286	0.7440357727455321	2.6139952067471315	0.03391510469818338	0.6853883170614424	2.4739290752479417	1.475644563934748	0.633057590226882	2.443192781998524	1.7149415610578713	0.57823789828154	2.3387257162427924	1.6013047326250096	0.5944141444048234	2.5323314047940673	1.3677588436713763	0.46068945599995487	2.5218906779906165	1.0770381558899376	0.40290416224272413	2.5056056290549185	0.8393532125510647	0.40741248071733116	2.4629561214965667	1.339004659128873	0.8022075255697914	2.4992199424928376	1.0600230650363869	0.8268939547628306	2.489050177846855	0.8212077812707774	0.8252719232220759
2	0.0666666666666666	2.5086512770195792	0.8270212174424231	0.6082607442837932	2.510626029393314	0.7944514301854568	0.5282653981908236	2.4840458277487505	0.4597482709072911	0.530455142170388	2.5556104924893566	0.09620459029849426	0.5670497249969385	2.3666695067067285	0.018372126387860486	0.5421984853813279	2.4050570235199062	0.021667199184273525	0.4792714714437801	2.604246105589711	0.03539707330777597	0.5676484021492088	2.500280298193635	0.7890189494053914	0.6941324961789209	2.5060553269906407	0.43414371462958407	0.6694379897120554	2.554800105758129	0.09648720004391582	0.6651926921362175	2.3816185404307038	0.014896246280181191	0.6770309997199355	2.413919091721574	0.021100890425394567	0.7385388347445249	2.6012731322449922	0.03733640823883851	0.6808170087167706	2.4735514796685765	1.4713679874501502	0.6327156201637946	2.443357634343865	1.7156355143153865	0.5745373625734758	2.3398725792904407	1.6026465172319557	0.5983799967319445	2.5328731134828164	1.3668183257696371	0.459969236020132	2.521022510226519	1.0768602080440317	0.40232368136886754	2.5048787270902553	0.8411481318651449	0.4057605048046717	2.470540754100899	1.34220331839609	0.7939854904518795	2.4998889748057027	1.0618496475917978	0.8260067357526979	2.4895696126635545	0.8251018748966892	0.8242025277366921
3	0.1	2.5085569249668245	0.8291037647361243	0.6081356729419254	2.5126673251336333	0.794884442759683	0.5302359071741919	2.4898795278314863	0.45962818874703887	0.5337958677693712	2.5573909961515833	0.09700894770669272	0.5677287434198283	2.365279203527584	0.021121832175858956	0.5448824861922229	2.4008851913870517	0.022744155989852313	0.4796786866663528	2.6061794817219206	0.033573787267144634	0.5689801982770865	2.5002402536152455	0.7919981907421657	0.694494053881287	2.5063125874103878	0.4342853981182145	0.6666545983768785	2.5479885939312497	0.10366645171299782	0.6687820478961755	2.3832702967724053	0.015081665663734391	0.6757307539604704	2.4119374277162886	0.021754010105511416	0.734381428989884	2.591070337184414	0.04010204463855463	0.6770528204343339	2.4730952044525223	1.4676997147540416	0.6322346763950407	2.443675484035951	1.7161276981969376	0.5718691908189504	2.3408909976926204	1.6036938181143823	0.6017545765313288	2.5333689719604977	1.3660215678285934	0.4593693841354258	2.5204194524404246	1.076751615575204	0.40181718305660336	2.5043065578860015	0.8426433517476154	0.40439060462598414	2.476684250053664	1.344771457884579	0.7871420852910758	2.500517200575557	1.0633915403799141	0.8253351572984591	2.490024848565121	0.8282770263577324	0.8232723685328127
4	0.1333333333333333	2.5083528221985567	0.8304629052334521	0.6078955716910586	2.513933815399552	0.7950744103052196	0.5313813346346242	2.4946309888377667	0.4589402811496885	0.5372609622673893	2.5586611704971207	0.09741196689284919	0.5683165732811816	2.36449659593932	0.023049915772285937	0.5468247248302124	2.3982901386016326	0.023457113203342886	0.4798907316055314	2.607530561479717	0.03241007816428861	0.5697712648177458	2.500021392655308	0.7937465371789578	0.694380513194658	2.5064926145848787	0.43437637557919795	0.6648361184848032	2.5436190695640617	0.10833755289609821	0.6710312360689248	2.3843896503910966	0.015702504360352747	0.6749474161829527	2.411624796627071	0.02208318650294495	0.7320290523673126	2.584687574558749	0.041890386862683614	0.6744232831169815	2.472707291374011	1.4650825719713432	0.6317256202475926	2.4441440901871085	1.716343133115927	0.5706489912930197	2.341704577319315	1.6043381600816895	0.604134683554713	2.5338093677290754	1.3654927165763022	0.4590292924217908	2.520175733930904	1.0767310614889687	0.4014413920943636	2.503973201543391	0.8436631751990258	0.40347227231728955	2.4804992635316743	1.3463910053675479	0.7826665629574119	2.501019528975508	1.0645130456551142	0.8249530978961848	2.490378637563738	0.8303918773211483	0.8225596360490149
5	0.1666666666666666	2.5080866227575322	0.8311708868984208	0.6075943069786413	2.514499959591886	0.7950721674827838	0.5318517896892414	2.4977209024246116	0.4580437534098036	0.5399798641834557	2.5594796456666074	0.09743611234816017	0.568809002825098	2.364266083867402	0.024337087317147777	0.548029869296505	2.3971169995598	0.023782809432877028	0.4798637138156089	2.6083914811379962	0.031855808845684445	0.5701104037115082	2.4997850649023885	0.794431358313171	0.693934740704737	2.506661315022392	0.4343842313366924	0.6638788306255962	2.5418805985547173	0.11038349092754551	0.6720211000869013	2.3849988874144246	0.016362916349036916	0.6744438098316522	2.4124566593194636	0.022054341329131217	0.7311730932280625	2.5819298876791845	0.04279500614524083	0.6728353698709598	2.4727530675269724	1.4638231661896142	0.6315100323372029	2.4446464111648103	1.716228818993913	0.5705900496071152	2.342248555604052	1.6046601191319878	0.6053364393143784	2.534212461792918	1.3652569641871533	0.45904931433026375	2.520215794276246	1.0767485946868394	0.40123929250166496	2.5038665897171097	0.8441876317281025	0.403027625759733	2.481704335943498	1.3470350496404708	0.7810921571011297	2.501319162939518	1.0652080099144419	0.8248031049896161	2.490635472291189	0.8315139078735501	0.8220755438450376
